<mxfile host="65bd71144e">
    <diagram id="38oenuNlAbriU8wYWGPA" name="Page-1">
        <mxGraphModel dx="1024" dy="708" grid="1" gridSize="10" guides="1" tooltips="1" connect="1" arrows="1" fold="1" page="1" pageScale="1" pageWidth="850" pageHeight="1100" math="0" shadow="0">
            <root>
                <mxCell id="0"/>
                <mxCell id="1" parent="0"/>
                <mxCell id="463" value="node.py" style="rounded=0;whiteSpace=wrap;html=1;verticalAlign=top;" vertex="1" parent="1">
                    <mxGeometry x="100" y="1160" width="300" height="910" as="geometry"/>
                </mxCell>
                <mxCell id="460" value="weighted_graph.py" style="rounded=0;whiteSpace=wrap;html=1;verticalAlign=top;" vertex="1" parent="1">
                    <mxGeometry x="510" y="1050" width="450" height="1120" as="geometry"/>
                </mxCell>
                <mxCell id="455" value="nodeMaps.py" style="rounded=0;whiteSpace=wrap;html=1;verticalAlign=top;" vertex="1" parent="1">
                    <mxGeometry x="2300" y="1880" width="300" height="570" as="geometry"/>
                </mxCell>
                <mxCell id="454" value="dijkstra.py" style="rounded=0;whiteSpace=wrap;html=1;verticalAlign=top;" vertex="1" parent="1">
                    <mxGeometry x="2640" y="930" width="660" height="2270" as="geometry"/>
                </mxCell>
                <mxCell id="408" value="dijkstra_api.py" style="rounded=0;whiteSpace=wrap;html=1;verticalAlign=top;" vertex="1" parent="1">
                    <mxGeometry x="1080" y="140" width="1190" height="3060" as="geometry"/>
                </mxCell>
                <mxCell id="37" value="main.py" style="rounded=0;whiteSpace=wrap;html=1;verticalAlign=top;" vertex="1" parent="1">
                    <mxGeometry x="390" y="70" width="640" height="890" as="geometry"/>
                </mxCell>
                <mxCell id="36" value="__init__.py" style="rounded=0;whiteSpace=wrap;html=1;verticalAlign=top;" vertex="1" parent="1">
                    <mxGeometry x="160" y="120" width="200" height="480" as="geometry"/>
                </mxCell>
                <mxCell id="33" value="" style="rounded=0;whiteSpace=wrap;html=1;dashed=1;dashPattern=12 12;" vertex="1" parent="1">
                    <mxGeometry x="180" y="160" width="160" height="420" as="geometry"/>
                </mxCell>
                <mxCell id="2" value="" style="rounded=0;whiteSpace=wrap;html=1;dashed=1;dashPattern=12 12;" vertex="1" parent="1">
                    <mxGeometry x="650" y="610" width="360" height="330" as="geometry"/>
                </mxCell>
                <mxCell id="3" value="" style="rounded=0;whiteSpace=wrap;html=1;dashed=1;dashPattern=12 12;" vertex="1" parent="1">
                    <mxGeometry x="410" y="160" width="200" height="580" as="geometry"/>
                </mxCell>
                <mxCell id="4" value="" style="edgeStyle=none;html=1;" edge="1" parent="1" source="5" target="7">
                    <mxGeometry relative="1" as="geometry"/>
                </mxCell>
                <mxCell id="35" style="edgeStyle=none;html=1;exitX=0;exitY=0.5;exitDx=0;exitDy=0;entryX=1;entryY=0.12;entryDx=0;entryDy=0;entryPerimeter=0;startArrow=classic;startFill=1;endArrow=none;endFill=0;" edge="1" parent="1" source="5" target="33">
                    <mxGeometry relative="1" as="geometry"/>
                </mxCell>
                <mxCell id="5" value="import flask cors and api as well as the api blueprint" style="rounded=0;whiteSpace=wrap;html=1;" vertex="1" parent="1">
                    <mxGeometry x="450" y="180" width="120" height="60" as="geometry"/>
                </mxCell>
                <mxCell id="6" value="" style="edgeStyle=none;html=1;" edge="1" parent="1" source="7" target="11">
                    <mxGeometry relative="1" as="geometry"/>
                </mxCell>
                <mxCell id="7" value="register the endpoint for handling api requests" style="rounded=0;whiteSpace=wrap;html=1;" vertex="1" parent="1">
                    <mxGeometry x="450" y="290" width="120" height="60" as="geometry"/>
                </mxCell>
                <mxCell id="8" value="" style="edgeStyle=none;html=1;" edge="1" parent="1" source="9" target="5">
                    <mxGeometry relative="1" as="geometry"/>
                </mxCell>
                <mxCell id="9" value="Start" style="ellipse;whiteSpace=wrap;html=1;" vertex="1" parent="1">
                    <mxGeometry x="450" y="90" width="120" height="50" as="geometry"/>
                </mxCell>
                <mxCell id="10" value="" style="edgeStyle=none;html=1;" edge="1" parent="1" source="11" target="13">
                    <mxGeometry relative="1" as="geometry"/>
                </mxCell>
                <mxCell id="11" value="does __name__ = __main__" style="rhombus;whiteSpace=wrap;html=1;" vertex="1" parent="1">
                    <mxGeometry x="450" y="400" width="120" height="80" as="geometry"/>
                </mxCell>
                <mxCell id="12" value="" style="edgeStyle=none;html=1;" edge="1" parent="1" source="13" target="17">
                    <mxGeometry relative="1" as="geometry"/>
                </mxCell>
                <mxCell id="13" value="define cors as a cors object of app" style="rounded=0;whiteSpace=wrap;html=1;" vertex="1" parent="1">
                    <mxGeometry x="450" y="530" width="120" height="60" as="geometry"/>
                </mxCell>
                <mxCell id="14" value="" style="edgeStyle=none;html=1;" edge="1" parent="1" source="17" target="18">
                    <mxGeometry relative="1" as="geometry"/>
                </mxCell>
                <mxCell id="15" style="edgeStyle=none;html=1;exitX=1;exitY=0.25;exitDx=0;exitDy=0;entryX=-0.004;entryY=0.137;entryDx=0;entryDy=0;entryPerimeter=0;" edge="1" parent="1" source="17" target="2">
                    <mxGeometry relative="1" as="geometry"/>
                </mxCell>
                <mxCell id="16" style="edgeStyle=none;html=1;exitX=1;exitY=0.75;exitDx=0;exitDy=0;entryX=-0.009;entryY=0.228;entryDx=0;entryDy=0;entryPerimeter=0;startArrow=classic;startFill=1;endArrow=none;endFill=0;" edge="1" parent="1" source="17" target="2">
                    <mxGeometry relative="1" as="geometry"/>
                </mxCell>
                <mxCell id="17" value="main()" style="shape=process;whiteSpace=wrap;html=1;backgroundOutline=1;" vertex="1" parent="1">
                    <mxGeometry x="450" y="640" width="120" height="60" as="geometry"/>
                </mxCell>
                <mxCell id="18" value="End" style="ellipse;whiteSpace=wrap;html=1;" vertex="1" parent="1">
                    <mxGeometry x="450" y="760" width="120" height="50" as="geometry"/>
                </mxCell>
                <mxCell id="19" value="" style="edgeStyle=none;html=1;" edge="1" parent="1" source="20" target="23">
                    <mxGeometry relative="1" as="geometry"/>
                </mxCell>
                <mxCell id="20" value="def main()" style="rounded=1;whiteSpace=wrap;html=1;arcSize=50;" vertex="1" parent="1">
                    <mxGeometry x="710" y="640" width="110" height="30" as="geometry"/>
                </mxCell>
                <mxCell id="21" value="" style="edgeStyle=none;html=1;" edge="1" parent="1" source="23" target="24">
                    <mxGeometry relative="1" as="geometry"/>
                </mxCell>
                <mxCell id="22" value="" style="edgeStyle=none;html=1;" edge="1" parent="1" source="23" target="25">
                    <mxGeometry relative="1" as="geometry"/>
                </mxCell>
                <mxCell id="23" value="enter app context" style="rounded=0;whiteSpace=wrap;html=1;" vertex="1" parent="1">
                    <mxGeometry x="705" y="710" width="120" height="60" as="geometry"/>
                </mxCell>
                <mxCell id="24" value="create all databases" style="rounded=0;whiteSpace=wrap;html=1;" vertex="1" parent="1">
                    <mxGeometry x="870" y="710" width="120" height="60" as="geometry"/>
                </mxCell>
                <mxCell id="25" value="run app on an open port" style="rounded=0;whiteSpace=wrap;html=1;" vertex="1" parent="1">
                    <mxGeometry x="705" y="820" width="120" height="60" as="geometry"/>
                </mxCell>
                <mxCell id="26" value="" style="edgeStyle=none;html=1;" edge="1" parent="1" source="27" target="29">
                    <mxGeometry relative="1" as="geometry"/>
                </mxCell>
                <mxCell id="27" value="define flask imports for flask, sql, and migrate to bind database to app" style="rounded=0;whiteSpace=wrap;html=1;" vertex="1" parent="1">
                    <mxGeometry x="200" y="180" width="120" height="60" as="geometry"/>
                </mxCell>
                <mxCell id="28" value="" style="edgeStyle=none;html=1;" edge="1" parent="1" source="29" target="31">
                    <mxGeometry relative="1" as="geometry"/>
                </mxCell>
                <mxCell id="29" value="define the app, database uri, app config settings, database" style="rounded=0;whiteSpace=wrap;html=1;" vertex="1" parent="1">
                    <mxGeometry x="200" y="280" width="120" height="60" as="geometry"/>
                </mxCell>
                <mxCell id="30" value="" style="edgeStyle=none;html=1;" edge="1" parent="1" source="31" target="32">
                    <mxGeometry relative="1" as="geometry"/>
                </mxCell>
                <mxCell id="31" value="bind database to app" style="rounded=0;whiteSpace=wrap;html=1;" vertex="1" parent="1">
                    <mxGeometry x="200" y="380" width="120" height="60" as="geometry"/>
                </mxCell>
                <mxCell id="32" value="configure image settings for storing images in the app" style="rounded=0;whiteSpace=wrap;html=1;" vertex="1" parent="1">
                    <mxGeometry x="200" y="490" width="120" height="60" as="geometry"/>
                </mxCell>
                <mxCell id="185" value="" style="rounded=0;whiteSpace=wrap;html=1;dashed=1;dashPattern=12 12;" vertex="1" parent="1">
                    <mxGeometry x="2670" y="980" width="600" height="2190" as="geometry"/>
                </mxCell>
                <mxCell id="186" value="" style="rounded=0;whiteSpace=wrap;html=1;dashed=1;dashPattern=12 12;" vertex="1" parent="1">
                    <mxGeometry x="1110" y="195" width="380" height="2695" as="geometry"/>
                </mxCell>
                <mxCell id="187" value="" style="rounded=0;whiteSpace=wrap;html=1;dashed=1;dashPattern=12 12;" vertex="1" parent="1">
                    <mxGeometry x="1515" y="2780" width="590" height="390" as="geometry"/>
                </mxCell>
                <mxCell id="188" value="" style="rounded=0;whiteSpace=wrap;html=1;dashed=1;dashPattern=12 12;" vertex="1" parent="1">
                    <mxGeometry x="1515" y="2340" width="580" height="395" as="geometry"/>
                </mxCell>
                <mxCell id="189" value="" style="rounded=0;whiteSpace=wrap;html=1;dashed=1;dashPattern=12 12;" vertex="1" parent="1">
                    <mxGeometry x="1520" y="1540" width="480" height="770" as="geometry"/>
                </mxCell>
                <mxCell id="190" value="" style="rounded=0;whiteSpace=wrap;html=1;dashed=1;dashPattern=12 12;" vertex="1" parent="1">
                    <mxGeometry x="1520" y="180" width="700" height="1340" as="geometry"/>
                </mxCell>
                <mxCell id="191" value="" style="edgeStyle=none;html=1;" edge="1" parent="1" source="192" target="194">
                    <mxGeometry relative="1" as="geometry"/>
                </mxCell>
                <mxCell id="192" value="import flask blueprints, requests, and json conversion" style="rounded=0;whiteSpace=wrap;html=1;" vertex="1" parent="1">
                    <mxGeometry x="1170" y="210" width="120" height="60" as="geometry"/>
                </mxCell>
                <mxCell id="193" value="" style="edgeStyle=none;html=1;" edge="1" parent="1" source="194" target="196">
                    <mxGeometry relative="1" as="geometry"/>
                </mxCell>
                <mxCell id="194" value="import models for NodeMap and WeightedGraph and import dijkstra function" style="rounded=0;whiteSpace=wrap;html=1;" vertex="1" parent="1">
                    <mxGeometry x="1150" y="310" width="160" height="80" as="geometry"/>
                </mxCell>
                <mxCell id="195" value="" style="edgeStyle=none;html=1;" edge="1" parent="1" source="196" target="198">
                    <mxGeometry relative="1" as="geometry"/>
                </mxCell>
                <mxCell id="196" value="import database" style="rounded=0;whiteSpace=wrap;html=1;" vertex="1" parent="1">
                    <mxGeometry x="1170" y="430" width="120" height="60" as="geometry"/>
                </mxCell>
                <mxCell id="197" value="" style="edgeStyle=none;html=1;" edge="1" parent="1" source="198" target="200">
                    <mxGeometry relative="1" as="geometry"/>
                </mxCell>
                <mxCell id="198" value="initialize the api blueprint" style="rounded=0;whiteSpace=wrap;html=1;" vertex="1" parent="1">
                    <mxGeometry x="1170" y="530" width="120" height="60" as="geometry"/>
                </mxCell>
                <mxCell id="199" value="" style="edgeStyle=none;html=1;" edge="1" parent="1" source="200" target="202">
                    <mxGeometry relative="1" as="geometry"/>
                </mxCell>
                <mxCell id="200" value="set cors exceptions" style="rounded=0;whiteSpace=wrap;html=1;" vertex="1" parent="1">
                    <mxGeometry x="1170" y="630" width="120" height="60" as="geometry"/>
                </mxCell>
                <mxCell id="201" value="" style="edgeStyle=none;html=1;" edge="1" parent="1" source="202">
                    <mxGeometry relative="1" as="geometry">
                        <mxPoint x="1230" y="810" as="targetPoint"/>
                    </mxGeometry>
                </mxCell>
                <mxCell id="461" style="edgeStyle=none;html=1;exitX=0;exitY=0.25;exitDx=0;exitDy=0;entryX=1;entryY=0.027;entryDx=0;entryDy=0;entryPerimeter=0;startArrow=none;startFill=0;endArrow=classic;endFill=1;" edge="1" parent="1" source="202" target="460">
                    <mxGeometry relative="1" as="geometry">
                        <Array as="points">
                            <mxPoint x="1050" y="735"/>
                            <mxPoint x="1050" y="1080"/>
                        </Array>
                    </mxGeometry>
                </mxCell>
                <mxCell id="462" style="edgeStyle=none;html=1;exitX=0;exitY=0.75;exitDx=0;exitDy=0;entryX=1.003;entryY=0.045;entryDx=0;entryDy=0;entryPerimeter=0;startArrow=classic;startFill=1;endArrow=none;endFill=0;" edge="1" parent="1" source="202" target="460">
                    <mxGeometry relative="1" as="geometry">
                        <Array as="points">
                            <mxPoint x="1060" y="765"/>
                            <mxPoint x="1060" y="1100"/>
                        </Array>
                    </mxGeometry>
                </mxCell>
                <mxCell id="202" value="set the graph to be a WeightedGraph object" style="rounded=0;whiteSpace=wrap;html=1;" vertex="1" parent="1">
                    <mxGeometry x="1170" y="720" width="120" height="60" as="geometry"/>
                </mxCell>
                <mxCell id="203" value="" style="edgeStyle=none;html=1;" edge="1" parent="1" target="253">
                    <mxGeometry relative="1" as="geometry">
                        <mxPoint x="1290" y="840" as="sourcePoint"/>
                    </mxGeometry>
                </mxCell>
                <mxCell id="204" value="" style="edgeStyle=none;html=1;entryX=0.5;entryY=0;entryDx=0;entryDy=0;" edge="1" parent="1" target="322">
                    <mxGeometry relative="1" as="geometry">
                        <mxPoint x="1230" y="870" as="sourcePoint"/>
                        <mxPoint x="1230" y="1390" as="targetPoint"/>
                    </mxGeometry>
                </mxCell>
                <mxCell id="205" value="" style="edgeStyle=none;html=1;" edge="1" parent="1" source="206" target="208">
                    <mxGeometry relative="1" as="geometry"/>
                </mxCell>
                <mxCell id="206" value="def run_dijkstra()" style="rounded=1;whiteSpace=wrap;html=1;arcSize=50;" vertex="1" parent="1">
                    <mxGeometry x="1660" y="210" width="120" height="30" as="geometry"/>
                </mxCell>
                <mxCell id="207" value="" style="edgeStyle=none;html=1;" edge="1" parent="1" source="208" target="210">
                    <mxGeometry relative="1" as="geometry"/>
                </mxCell>
                <mxCell id="208" value="define data as a JSON request" style="rounded=0;whiteSpace=wrap;html=1;" vertex="1" parent="1">
                    <mxGeometry x="1660" y="280" width="120" height="60" as="geometry"/>
                </mxCell>
                <mxCell id="209" value="" style="edgeStyle=none;html=1;" edge="1" parent="1" source="210" target="213">
                    <mxGeometry relative="1" as="geometry"/>
                </mxCell>
                <mxCell id="210" value="define adj_list, start_id, end_id" style="rounded=0;whiteSpace=wrap;html=1;" vertex="1" parent="1">
                    <mxGeometry x="1660" y="380" width="120" height="60" as="geometry"/>
                </mxCell>
                <mxCell id="211" style="edgeStyle=none;html=1;entryX=0;entryY=0.5;entryDx=0;entryDy=0;" edge="1" parent="1" source="213" target="214">
                    <mxGeometry relative="1" as="geometry"/>
                </mxCell>
                <mxCell id="212" value="" style="edgeStyle=none;html=1;" edge="1" parent="1" source="213" target="216">
                    <mxGeometry relative="1" as="geometry"/>
                </mxCell>
                <mxCell id="213" value="is adj_list, start_id,&lt;br&gt;or end_id non" style="rhombus;whiteSpace=wrap;html=1;" vertex="1" parent="1">
                    <mxGeometry x="1660" y="480" width="120" height="80" as="geometry"/>
                </mxCell>
                <mxCell id="214" value="return JSON as error 400" style="rounded=0;whiteSpace=wrap;html=1;" vertex="1" parent="1">
                    <mxGeometry x="1840" y="490" width="120" height="60" as="geometry"/>
                </mxCell>
                <mxCell id="215" value="" style="edgeStyle=none;html=1;" edge="1" parent="1" source="216" target="218">
                    <mxGeometry relative="1" as="geometry"/>
                </mxCell>
                <mxCell id="216" value="define start_id and end_id = -1" style="rounded=0;whiteSpace=wrap;html=1;" vertex="1" parent="1">
                    <mxGeometry x="1660" y="600" width="120" height="60" as="geometry"/>
                </mxCell>
                <mxCell id="217" value="" style="edgeStyle=none;html=1;" edge="1" parent="1" source="218" target="221">
                    <mxGeometry relative="1" as="geometry"/>
                </mxCell>
                <mxCell id="218" value="clear graph nodes" style="rounded=0;whiteSpace=wrap;html=1;" vertex="1" parent="1">
                    <mxGeometry x="1660" y="700" width="120" height="60" as="geometry"/>
                </mxCell>
                <mxCell id="219" value="" style="edgeStyle=none;html=1;" edge="1" parent="1" source="221" target="223">
                    <mxGeometry relative="1" as="geometry"/>
                </mxCell>
                <mxCell id="220" value="" style="edgeStyle=none;html=1;" edge="1" parent="1" source="221" target="233">
                    <mxGeometry relative="1" as="geometry"/>
                </mxCell>
                <mxCell id="221" value="neighbor node in array?" style="rhombus;whiteSpace=wrap;html=1;" vertex="1" parent="1">
                    <mxGeometry x="1680" y="850" width="80" height="80" as="geometry"/>
                </mxCell>
                <mxCell id="222" value="" style="edgeStyle=none;html=1;" edge="1" parent="1" source="223" target="226">
                    <mxGeometry relative="1" as="geometry"/>
                </mxCell>
                <mxCell id="223" value="add start node to graph" style="rounded=0;whiteSpace=wrap;html=1;" vertex="1" parent="1">
                    <mxGeometry x="1830" y="860" width="120" height="60" as="geometry"/>
                </mxCell>
                <mxCell id="224" value="" style="edgeStyle=none;html=1;" edge="1" parent="1" source="226" target="229">
                    <mxGeometry relative="1" as="geometry"/>
                </mxCell>
                <mxCell id="225" style="edgeStyle=none;html=1;exitX=0.5;exitY=0;exitDx=0;exitDy=0;entryX=0.5;entryY=0;entryDx=0;entryDy=0;" edge="1" parent="1" source="226" target="221">
                    <mxGeometry relative="1" as="geometry">
                        <Array as="points">
                            <mxPoint x="2060" y="810"/>
                            <mxPoint x="1720" y="810"/>
                        </Array>
                    </mxGeometry>
                </mxCell>
                <mxCell id="226" value="neighbor weight in array?" style="rhombus;whiteSpace=wrap;html=1;" vertex="1" parent="1">
                    <mxGeometry x="2020" y="850" width="80" height="80" as="geometry"/>
                </mxCell>
                <mxCell id="227" value="" style="edgeStyle=none;html=1;" edge="1" parent="1" source="229" target="230">
                    <mxGeometry relative="1" as="geometry"/>
                </mxCell>
                <mxCell id="228" style="edgeStyle=none;html=1;exitX=1;exitY=0.5;exitDx=0;exitDy=0;entryX=1;entryY=0.5;entryDx=0;entryDy=0;" edge="1" parent="1" source="229" target="226">
                    <mxGeometry relative="1" as="geometry">
                        <Array as="points">
                            <mxPoint x="2150" y="1010"/>
                            <mxPoint x="2150" y="890"/>
                        </Array>
                    </mxGeometry>
                </mxCell>
                <mxCell id="229" value="if weight not 0 and weight not 10000" style="rhombus;whiteSpace=wrap;html=1;" vertex="1" parent="1">
                    <mxGeometry x="2020" y="970" width="80" height="80" as="geometry"/>
                </mxCell>
                <mxCell id="230" value="add edge to graph between start and ent node and weight" style="rounded=0;whiteSpace=wrap;html=1;" vertex="1" parent="1">
                    <mxGeometry x="2000" y="1090" width="120" height="60" as="geometry"/>
                </mxCell>
                <mxCell id="231" value="" style="edgeStyle=none;html=1;" edge="1" parent="1" source="233" target="234">
                    <mxGeometry relative="1" as="geometry"/>
                </mxCell>
                <mxCell id="232" value="" style="edgeStyle=none;html=1;" edge="1" parent="1" source="233">
                    <mxGeometry relative="1" as="geometry">
                        <mxPoint x="1720" y="1300" as="targetPoint"/>
                    </mxGeometry>
                </mxCell>
                <mxCell id="233" value="is start or end id in graph" style="rhombus;whiteSpace=wrap;html=1;" vertex="1" parent="1">
                    <mxGeometry x="1680" y="970" width="80" height="80" as="geometry"/>
                </mxCell>
                <mxCell id="234" value="return 404 error of invalid start/end point" style="rounded=0;whiteSpace=wrap;html=1;" vertex="1" parent="1">
                    <mxGeometry x="1830" y="980" width="120" height="60" as="geometry"/>
                </mxCell>
                <mxCell id="235" style="edgeStyle=none;html=1;exitX=0.5;exitY=0;exitDx=0;exitDy=0;entryX=0.822;entryY=0.994;entryDx=0;entryDy=0;entryPerimeter=0;startArrow=classic;startFill=1;endArrow=none;endFill=0;" edge="1" parent="1" source="236" target="407">
                    <mxGeometry relative="1" as="geometry"/>
                </mxCell>
                <mxCell id="236" value="return JSON of path" style="rounded=0;whiteSpace=wrap;html=1;" vertex="1" parent="1">
                    <mxGeometry x="1765" y="1430" width="120" height="60" as="geometry"/>
                </mxCell>
                <mxCell id="237" style="edgeStyle=none;html=1;exitX=0.5;exitY=0;exitDx=0;exitDy=0;entryX=0.181;entryY=1.058;entryDx=0;entryDy=0;entryPerimeter=0;startArrow=classic;startFill=1;endArrow=none;endFill=0;" edge="1" parent="1" source="238" target="407">
                    <mxGeometry relative="1" as="geometry"/>
                </mxCell>
                <mxCell id="238" value="return error 500 for internal server error" style="rounded=0;whiteSpace=wrap;html=1;" vertex="1" parent="1">
                    <mxGeometry x="1555" y="1440" width="120" height="60" as="geometry"/>
                </mxCell>
                <mxCell id="239" value="False" style="text;html=1;strokeColor=none;fillColor=none;align=center;verticalAlign=middle;whiteSpace=wrap;rounded=0;" vertex="1" parent="1">
                    <mxGeometry x="1625" y="1380" width="60" height="30" as="geometry"/>
                </mxCell>
                <mxCell id="240" value="True" style="text;html=1;strokeColor=none;fillColor=none;align=center;verticalAlign=middle;whiteSpace=wrap;rounded=0;" vertex="1" parent="1">
                    <mxGeometry x="1760" y="1380" width="60" height="30" as="geometry"/>
                </mxCell>
                <mxCell id="241" value="False" style="text;html=1;strokeColor=none;fillColor=none;align=center;verticalAlign=middle;whiteSpace=wrap;rounded=0;" vertex="1" parent="1">
                    <mxGeometry x="1620" y="560" width="60" height="30" as="geometry"/>
                </mxCell>
                <mxCell id="242" value="True" style="text;html=1;strokeColor=none;fillColor=none;align=center;verticalAlign=middle;whiteSpace=wrap;rounded=0;" vertex="1" parent="1">
                    <mxGeometry x="1780" y="480" width="60" height="30" as="geometry"/>
                </mxCell>
                <mxCell id="243" value="False" style="text;html=1;strokeColor=none;fillColor=none;align=center;verticalAlign=middle;whiteSpace=wrap;rounded=0;" vertex="1" parent="1">
                    <mxGeometry x="1645" y="930" width="60" height="30" as="geometry"/>
                </mxCell>
                <mxCell id="244" value="True" style="text;html=1;strokeColor=none;fillColor=none;align=center;verticalAlign=middle;whiteSpace=wrap;rounded=0;" vertex="1" parent="1">
                    <mxGeometry x="1770" y="850" width="60" height="30" as="geometry"/>
                </mxCell>
                <mxCell id="245" value="True" style="text;html=1;strokeColor=none;fillColor=none;align=center;verticalAlign=middle;whiteSpace=wrap;rounded=0;" vertex="1" parent="1">
                    <mxGeometry x="1990" y="930" width="60" height="30" as="geometry"/>
                </mxCell>
                <mxCell id="246" value="True" style="text;html=1;strokeColor=none;fillColor=none;align=center;verticalAlign=middle;whiteSpace=wrap;rounded=0;" vertex="1" parent="1">
                    <mxGeometry x="1980" y="1050" width="60" height="30" as="geometry"/>
                </mxCell>
                <mxCell id="247" value="False" style="text;html=1;strokeColor=none;fillColor=none;align=center;verticalAlign=middle;whiteSpace=wrap;rounded=0;" vertex="1" parent="1">
                    <mxGeometry x="2160" y="940" width="60" height="30" as="geometry"/>
                </mxCell>
                <mxCell id="248" value="False" style="text;html=1;strokeColor=none;fillColor=none;align=center;verticalAlign=middle;whiteSpace=wrap;rounded=0;" vertex="1" parent="1">
                    <mxGeometry x="1860" y="770" width="60" height="30" as="geometry"/>
                </mxCell>
                <mxCell id="249" value="True" style="text;html=1;strokeColor=none;fillColor=none;align=center;verticalAlign=middle;whiteSpace=wrap;rounded=0;" vertex="1" parent="1">
                    <mxGeometry x="1660" y="1060" width="60" height="30" as="geometry"/>
                </mxCell>
                <mxCell id="250" value="False" style="text;html=1;strokeColor=none;fillColor=none;align=center;verticalAlign=middle;whiteSpace=wrap;rounded=0;" vertex="1" parent="1">
                    <mxGeometry x="1760" y="970" width="60" height="30" as="geometry"/>
                </mxCell>
                <mxCell id="251" style="edgeStyle=none;html=1;exitX=1;exitY=0.25;exitDx=0;exitDy=0;entryX=-0.001;entryY=0.48;entryDx=0;entryDy=0;entryPerimeter=0;" edge="1" parent="1" source="253" target="190">
                    <mxGeometry relative="1" as="geometry"/>
                </mxCell>
                <mxCell id="252" style="edgeStyle=none;html=1;exitX=1;exitY=0.75;exitDx=0;exitDy=0;entryX=0.002;entryY=0.506;entryDx=0;entryDy=0;entryPerimeter=0;startArrow=classic;startFill=1;endArrow=none;endFill=0;" edge="1" parent="1" source="253" target="190">
                    <mxGeometry relative="1" as="geometry"/>
                </mxCell>
                <mxCell id="253" value="run_dijkstra()" style="shape=process;whiteSpace=wrap;html=1;backgroundOutline=1;" vertex="1" parent="1">
                    <mxGeometry x="1340" y="810" width="120" height="60" as="geometry"/>
                </mxCell>
                <mxCell id="254" value="" style="edgeStyle=none;html=1;" edge="1" parent="1" target="258">
                    <mxGeometry relative="1" as="geometry">
                        <mxPoint x="1290" y="1590" as="sourcePoint"/>
                    </mxGeometry>
                </mxCell>
                <mxCell id="255" value="" style="edgeStyle=none;html=1;" edge="1" parent="1">
                    <mxGeometry relative="1" as="geometry">
                        <mxPoint x="1230" y="1620" as="sourcePoint"/>
                        <mxPoint x="1230" y="2350" as="targetPoint"/>
                    </mxGeometry>
                </mxCell>
                <mxCell id="256" style="edgeStyle=none;html=1;exitX=1;exitY=0.75;exitDx=0;exitDy=0;entryX=-0.005;entryY=0.084;entryDx=0;entryDy=0;entryPerimeter=0;startArrow=classic;startFill=1;endArrow=none;endFill=0;" edge="1" parent="1" source="258" target="189">
                    <mxGeometry relative="1" as="geometry"/>
                </mxCell>
                <mxCell id="257" style="edgeStyle=none;html=1;exitX=1;exitY=0.25;exitDx=0;exitDy=0;entryX=-0.003;entryY=0.045;entryDx=0;entryDy=0;entryPerimeter=0;startArrow=none;startFill=0;endArrow=classic;endFill=1;" edge="1" parent="1" source="258" target="189">
                    <mxGeometry relative="1" as="geometry"/>
                </mxCell>
                <mxCell id="258" value="save_map()" style="shape=process;whiteSpace=wrap;html=1;backgroundOutline=1;" vertex="1" parent="1">
                    <mxGeometry x="1340" y="1560" width="120" height="60" as="geometry"/>
                </mxCell>
                <mxCell id="259" value="" style="edgeStyle=none;html=1;" edge="1" parent="1" target="263">
                    <mxGeometry relative="1" as="geometry">
                        <mxPoint x="1290" y="2380" as="sourcePoint"/>
                    </mxGeometry>
                </mxCell>
                <mxCell id="260" value="" style="edgeStyle=none;html=1;" edge="1" parent="1">
                    <mxGeometry relative="1" as="geometry">
                        <mxPoint x="1230" y="2410" as="sourcePoint"/>
                        <mxPoint x="1230" y="2810" as="targetPoint"/>
                    </mxGeometry>
                </mxCell>
                <mxCell id="261" style="edgeStyle=none;html=1;exitX=1;exitY=0.25;exitDx=0;exitDy=0;entryX=0;entryY=0.064;entryDx=0;entryDy=0;entryPerimeter=0;startArrow=none;startFill=0;endArrow=classic;endFill=1;" edge="1" parent="1" source="263" target="188">
                    <mxGeometry relative="1" as="geometry"/>
                </mxCell>
                <mxCell id="262" style="edgeStyle=none;html=1;exitX=1;exitY=0.75;exitDx=0;exitDy=0;entryX=-0.002;entryY=0.137;entryDx=0;entryDy=0;entryPerimeter=0;startArrow=classic;startFill=1;endArrow=none;endFill=0;" edge="1" parent="1" source="263" target="188">
                    <mxGeometry relative="1" as="geometry"/>
                </mxCell>
                <mxCell id="263" value="get_maps()" style="shape=process;whiteSpace=wrap;html=1;backgroundOutline=1;" vertex="1" parent="1">
                    <mxGeometry x="1340" y="2350" width="120" height="60" as="geometry"/>
                </mxCell>
                <mxCell id="264" value="" style="edgeStyle=none;html=1;" edge="1" parent="1" target="267">
                    <mxGeometry relative="1" as="geometry">
                        <mxPoint x="1290" y="2840" as="sourcePoint"/>
                    </mxGeometry>
                </mxCell>
                <mxCell id="265" style="edgeStyle=none;html=1;exitX=1;exitY=0.75;exitDx=0;exitDy=0;entryX=0.002;entryY=0.193;entryDx=0;entryDy=0;entryPerimeter=0;startArrow=classic;startFill=1;endArrow=none;endFill=0;" edge="1" parent="1" source="267" target="187">
                    <mxGeometry relative="1" as="geometry"/>
                </mxCell>
                <mxCell id="266" style="edgeStyle=none;html=1;exitX=1;exitY=0.25;exitDx=0;exitDy=0;entryX=0.003;entryY=0.113;entryDx=0;entryDy=0;entryPerimeter=0;startArrow=none;startFill=0;endArrow=classic;endFill=1;" edge="1" parent="1" source="267" target="187">
                    <mxGeometry relative="1" as="geometry"/>
                </mxCell>
                <mxCell id="267" value="delete_map()" style="shape=process;whiteSpace=wrap;html=1;backgroundOutline=1;" vertex="1" parent="1">
                    <mxGeometry x="1340" y="2810" width="120" height="60" as="geometry"/>
                </mxCell>
                <mxCell id="268" value="" style="edgeStyle=none;html=1;" edge="1" parent="1" source="269" target="271">
                    <mxGeometry relative="1" as="geometry"/>
                </mxCell>
                <mxCell id="269" value="def save_map()" style="rounded=1;whiteSpace=wrap;html=1;arcSize=50;" vertex="1" parent="1">
                    <mxGeometry x="1665" y="1560" width="120" height="30" as="geometry"/>
                </mxCell>
                <mxCell id="270" value="" style="edgeStyle=none;html=1;" edge="1" parent="1" source="271" target="274">
                    <mxGeometry relative="1" as="geometry"/>
                </mxCell>
                <mxCell id="271" value="define data from teh request" style="rounded=0;whiteSpace=wrap;html=1;" vertex="1" parent="1">
                    <mxGeometry x="1665" y="1640" width="120" height="60" as="geometry"/>
                </mxCell>
                <mxCell id="272" value="" style="edgeStyle=none;html=1;" edge="1" parent="1" source="274" target="275">
                    <mxGeometry relative="1" as="geometry"/>
                </mxCell>
                <mxCell id="273" value="" style="edgeStyle=none;html=1;" edge="1" parent="1" source="274" target="277">
                    <mxGeometry relative="1" as="geometry"/>
                </mxCell>
                <mxCell id="274" value="if map or mapName not contained in data" style="rhombus;whiteSpace=wrap;html=1;" vertex="1" parent="1">
                    <mxGeometry x="1685" y="1750" width="80" height="80" as="geometry"/>
                </mxCell>
                <mxCell id="275" value="return 400 error of missing data" style="rounded=0;whiteSpace=wrap;html=1;" vertex="1" parent="1">
                    <mxGeometry x="1850" y="1760" width="120" height="60" as="geometry"/>
                </mxCell>
                <mxCell id="276" value="" style="edgeStyle=none;html=1;" edge="1" parent="1" source="277" target="279">
                    <mxGeometry relative="1" as="geometry"/>
                </mxCell>
                <mxCell id="277" value="define map name and map variable" style="rounded=0;whiteSpace=wrap;html=1;" vertex="1" parent="1">
                    <mxGeometry x="1665" y="1890" width="120" height="60" as="geometry"/>
                </mxCell>
                <mxCell id="278" value="" style="edgeStyle=none;html=1;" edge="1" parent="1" source="279" target="282">
                    <mxGeometry relative="1" as="geometry"/>
                </mxCell>
                <mxCell id="457" style="edgeStyle=none;html=1;exitX=1;exitY=0.75;exitDx=0;exitDy=0;entryX=-0.003;entryY=0.292;entryDx=0;entryDy=0;entryPerimeter=0;startArrow=classic;startFill=1;endArrow=none;endFill=0;" edge="1" parent="1" source="279" target="455">
                    <mxGeometry relative="1" as="geometry"/>
                </mxCell>
                <mxCell id="458" style="edgeStyle=none;html=1;exitX=1;exitY=0.25;exitDx=0;exitDy=0;entryX=-0.007;entryY=0.237;entryDx=0;entryDy=0;entryPerimeter=0;startArrow=none;startFill=0;endArrow=classic;endFill=1;" edge="1" parent="1" source="279" target="455">
                    <mxGeometry relative="1" as="geometry"/>
                </mxCell>
                <mxCell id="279" value="create new NodeMap object" style="rounded=0;whiteSpace=wrap;html=1;" vertex="1" parent="1">
                    <mxGeometry x="1665" y="2000" width="120" height="60" as="geometry"/>
                </mxCell>
                <mxCell id="280" style="edgeStyle=none;html=1;exitX=0;exitY=0.5;exitDx=0;exitDy=0;entryX=0.5;entryY=0;entryDx=0;entryDy=0;" edge="1" parent="1" source="282" target="283">
                    <mxGeometry relative="1" as="geometry">
                        <Array as="points">
                            <mxPoint x="1605" y="2150"/>
                        </Array>
                    </mxGeometry>
                </mxCell>
                <mxCell id="281" style="edgeStyle=none;html=1;exitX=1;exitY=0.5;exitDx=0;exitDy=0;entryX=0.5;entryY=0;entryDx=0;entryDy=0;" edge="1" parent="1" source="282" target="284">
                    <mxGeometry relative="1" as="geometry">
                        <Array as="points">
                            <mxPoint x="1845" y="2150"/>
                        </Array>
                    </mxGeometry>
                </mxCell>
                <mxCell id="282" value="try adding node map to database" style="rhombus;whiteSpace=wrap;html=1;" vertex="1" parent="1">
                    <mxGeometry x="1685" y="2110" width="80" height="80" as="geometry"/>
                </mxCell>
                <mxCell id="283" value="rollback changes and return 500 internal server error" style="rounded=0;whiteSpace=wrap;html=1;" vertex="1" parent="1">
                    <mxGeometry x="1545" y="2220" width="120" height="60" as="geometry"/>
                </mxCell>
                <mxCell id="284" value="commit changes and return 201 success code" style="rounded=0;whiteSpace=wrap;html=1;" vertex="1" parent="1">
                    <mxGeometry x="1785" y="2220" width="120" height="60" as="geometry"/>
                </mxCell>
                <mxCell id="285" value="True" style="text;html=1;strokeColor=none;fillColor=none;align=center;verticalAlign=middle;whiteSpace=wrap;rounded=0;" vertex="1" parent="1">
                    <mxGeometry x="1775" y="2110" width="60" height="30" as="geometry"/>
                </mxCell>
                <mxCell id="286" value="False" style="text;html=1;strokeColor=none;fillColor=none;align=center;verticalAlign=middle;whiteSpace=wrap;rounded=0;" vertex="1" parent="1">
                    <mxGeometry x="1615" y="2110" width="60" height="30" as="geometry"/>
                </mxCell>
                <mxCell id="287" value="True" style="text;html=1;strokeColor=none;fillColor=none;align=center;verticalAlign=middle;whiteSpace=wrap;rounded=0;" vertex="1" parent="1">
                    <mxGeometry x="1765" y="1750" width="60" height="30" as="geometry"/>
                </mxCell>
                <mxCell id="288" value="False" style="text;html=1;strokeColor=none;fillColor=none;align=center;verticalAlign=middle;whiteSpace=wrap;rounded=0;" vertex="1" parent="1">
                    <mxGeometry x="1645" y="1840" width="60" height="30" as="geometry"/>
                </mxCell>
                <mxCell id="289" value="" style="edgeStyle=none;html=1;" edge="1" parent="1" source="290" target="293">
                    <mxGeometry relative="1" as="geometry"/>
                </mxCell>
                <mxCell id="290" value="def get_maps()" style="rounded=1;whiteSpace=wrap;html=1;arcSize=50;" vertex="1" parent="1">
                    <mxGeometry x="1680" y="2355" width="120" height="30" as="geometry"/>
                </mxCell>
                <mxCell id="291" style="edgeStyle=none;html=1;exitX=1;exitY=0.5;exitDx=0;exitDy=0;entryX=0.5;entryY=0;entryDx=0;entryDy=0;" edge="1" parent="1" source="293" target="296">
                    <mxGeometry relative="1" as="geometry">
                        <Array as="points">
                            <mxPoint x="1920" y="2475"/>
                        </Array>
                    </mxGeometry>
                </mxCell>
                <mxCell id="292" style="edgeStyle=none;html=1;exitX=0;exitY=0.5;exitDx=0;exitDy=0;entryX=0.5;entryY=0;entryDx=0;entryDy=0;" edge="1" parent="1" source="293" target="299">
                    <mxGeometry relative="1" as="geometry">
                        <Array as="points">
                            <mxPoint x="1590" y="2475"/>
                        </Array>
                    </mxGeometry>
                </mxCell>
                <mxCell id="293" value="try to retrieve all node maps from database" style="rhombus;whiteSpace=wrap;html=1;" vertex="1" parent="1">
                    <mxGeometry x="1670" y="2435" width="140" height="80" as="geometry"/>
                </mxCell>
                <mxCell id="294" style="edgeStyle=none;html=1;exitX=0;exitY=0.5;exitDx=0;exitDy=0;entryX=0.5;entryY=0;entryDx=0;entryDy=0;" edge="1" parent="1" source="296" target="298">
                    <mxGeometry relative="1" as="geometry">
                        <Array as="points">
                            <mxPoint x="1820" y="2585"/>
                        </Array>
                    </mxGeometry>
                </mxCell>
                <mxCell id="295" style="edgeStyle=none;html=1;exitX=1;exitY=0.5;exitDx=0;exitDy=0;entryX=0.5;entryY=0;entryDx=0;entryDy=0;" edge="1" parent="1" source="296" target="297">
                    <mxGeometry relative="1" as="geometry">
                        <Array as="points">
                            <mxPoint x="2020" y="2585"/>
                        </Array>
                    </mxGeometry>
                </mxCell>
                <mxCell id="296" value="node map in node maps" style="rhombus;whiteSpace=wrap;html=1;" vertex="1" parent="1">
                    <mxGeometry x="1880" y="2545" width="80" height="80" as="geometry"/>
                </mxCell>
                <mxCell id="297" value="create a dictionary for each map retrieved" style="rounded=0;whiteSpace=wrap;html=1;" vertex="1" parent="1">
                    <mxGeometry x="1960" y="2655" width="120" height="60" as="geometry"/>
                </mxCell>
                <mxCell id="298" value="return 200 sucess error" style="rounded=0;whiteSpace=wrap;html=1;" vertex="1" parent="1">
                    <mxGeometry x="1760" y="2655" width="120" height="60" as="geometry"/>
                </mxCell>
                <mxCell id="299" value="return 500 internal server error" style="rounded=0;whiteSpace=wrap;html=1;" vertex="1" parent="1">
                    <mxGeometry x="1530" y="2545" width="120" height="60" as="geometry"/>
                </mxCell>
                <mxCell id="300" value="true" style="text;html=1;strokeColor=none;fillColor=none;align=center;verticalAlign=middle;whiteSpace=wrap;rounded=0;" vertex="1" parent="1">
                    <mxGeometry x="1820" y="2435" width="60" height="30" as="geometry"/>
                </mxCell>
                <mxCell id="301" value="false" style="text;html=1;strokeColor=none;fillColor=none;align=center;verticalAlign=middle;whiteSpace=wrap;rounded=0;" vertex="1" parent="1">
                    <mxGeometry x="1600" y="2435" width="60" height="30" as="geometry"/>
                </mxCell>
                <mxCell id="302" value="true" style="text;html=1;strokeColor=none;fillColor=none;align=center;verticalAlign=middle;whiteSpace=wrap;rounded=0;" vertex="1" parent="1">
                    <mxGeometry x="1960" y="2535" width="60" height="30" as="geometry"/>
                </mxCell>
                <mxCell id="303" value="false" style="text;html=1;strokeColor=none;fillColor=none;align=center;verticalAlign=middle;whiteSpace=wrap;rounded=0;" vertex="1" parent="1">
                    <mxGeometry x="1810" y="2535" width="60" height="30" as="geometry"/>
                </mxCell>
                <mxCell id="304" value="" style="edgeStyle=none;html=1;" edge="1" parent="1" source="305" target="308">
                    <mxGeometry relative="1" as="geometry"/>
                </mxCell>
                <mxCell id="305" value="def get_maps()" style="rounded=1;whiteSpace=wrap;html=1;arcSize=50;" vertex="1" parent="1">
                    <mxGeometry x="1685" y="2790" width="120" height="30" as="geometry"/>
                </mxCell>
                <mxCell id="306" style="edgeStyle=none;html=1;exitX=1;exitY=0.5;exitDx=0;exitDy=0;entryX=0.5;entryY=0;entryDx=0;entryDy=0;" edge="1" parent="1" source="308" target="311">
                    <mxGeometry relative="1" as="geometry">
                        <Array as="points">
                            <mxPoint x="1925" y="2910"/>
                        </Array>
                    </mxGeometry>
                </mxCell>
                <mxCell id="307" style="edgeStyle=none;html=1;exitX=0;exitY=0.5;exitDx=0;exitDy=0;entryX=0.5;entryY=0;entryDx=0;entryDy=0;" edge="1" parent="1" source="308" target="314">
                    <mxGeometry relative="1" as="geometry">
                        <Array as="points">
                            <mxPoint x="1595" y="2910"/>
                        </Array>
                    </mxGeometry>
                </mxCell>
                <mxCell id="308" value="try to retrieve all node maps from database" style="rhombus;whiteSpace=wrap;html=1;" vertex="1" parent="1">
                    <mxGeometry x="1675" y="2870" width="140" height="80" as="geometry"/>
                </mxCell>
                <mxCell id="309" style="edgeStyle=none;html=1;exitX=0;exitY=0.5;exitDx=0;exitDy=0;entryX=0.5;entryY=0;entryDx=0;entryDy=0;" edge="1" parent="1" source="311" target="313">
                    <mxGeometry relative="1" as="geometry">
                        <Array as="points">
                            <mxPoint x="1825" y="3020"/>
                        </Array>
                    </mxGeometry>
                </mxCell>
                <mxCell id="310" style="edgeStyle=none;html=1;exitX=1;exitY=0.5;exitDx=0;exitDy=0;entryX=0.5;entryY=0;entryDx=0;entryDy=0;" edge="1" parent="1" source="311" target="312">
                    <mxGeometry relative="1" as="geometry">
                        <Array as="points">
                            <mxPoint x="2025" y="3020"/>
                        </Array>
                    </mxGeometry>
                </mxCell>
                <mxCell id="311" value="node map in node maps" style="rhombus;whiteSpace=wrap;html=1;" vertex="1" parent="1">
                    <mxGeometry x="1885" y="2980" width="80" height="80" as="geometry"/>
                </mxCell>
                <mxCell id="312" value="create a dictionary for each map retrieved" style="rounded=0;whiteSpace=wrap;html=1;" vertex="1" parent="1">
                    <mxGeometry x="1965" y="3090" width="120" height="60" as="geometry"/>
                </mxCell>
                <mxCell id="313" value="return 200 sucess error" style="rounded=0;whiteSpace=wrap;html=1;" vertex="1" parent="1">
                    <mxGeometry x="1765" y="3090" width="120" height="60" as="geometry"/>
                </mxCell>
                <mxCell id="314" value="return 500 internal server error" style="rounded=0;whiteSpace=wrap;html=1;" vertex="1" parent="1">
                    <mxGeometry x="1535" y="2980" width="120" height="60" as="geometry"/>
                </mxCell>
                <mxCell id="315" value="true" style="text;html=1;strokeColor=none;fillColor=none;align=center;verticalAlign=middle;whiteSpace=wrap;rounded=0;" vertex="1" parent="1">
                    <mxGeometry x="1825" y="2870" width="60" height="30" as="geometry"/>
                </mxCell>
                <mxCell id="316" value="false" style="text;html=1;strokeColor=none;fillColor=none;align=center;verticalAlign=middle;whiteSpace=wrap;rounded=0;" vertex="1" parent="1">
                    <mxGeometry x="1605" y="2870" width="60" height="30" as="geometry"/>
                </mxCell>
                <mxCell id="317" value="true" style="text;html=1;strokeColor=none;fillColor=none;align=center;verticalAlign=middle;whiteSpace=wrap;rounded=0;" vertex="1" parent="1">
                    <mxGeometry x="1965" y="2970" width="60" height="30" as="geometry"/>
                </mxCell>
                <mxCell id="318" value="false" style="text;html=1;strokeColor=none;fillColor=none;align=center;verticalAlign=middle;whiteSpace=wrap;rounded=0;" vertex="1" parent="1">
                    <mxGeometry x="1815" y="2970" width="60" height="30" as="geometry"/>
                </mxCell>
                <mxCell id="319" value="route a request to run the dijkstra algorithm" style="rhombus;whiteSpace=wrap;html=1;" vertex="1" parent="1">
                    <mxGeometry x="1175" y="810" width="115" height="60" as="geometry"/>
                </mxCell>
                <mxCell id="320" value="true" style="text;html=1;strokeColor=none;fillColor=none;align=center;verticalAlign=middle;whiteSpace=wrap;rounded=0;" vertex="1" parent="1">
                    <mxGeometry x="1280" y="790" width="60" height="30" as="geometry"/>
                </mxCell>
                <mxCell id="321" value="false" style="text;html=1;strokeColor=none;fillColor=none;align=center;verticalAlign=middle;whiteSpace=wrap;rounded=0;" vertex="1" parent="1">
                    <mxGeometry x="1160" y="890" width="60" height="30" as="geometry"/>
                </mxCell>
                <mxCell id="322" value="route a request for saving a map" style="rhombus;whiteSpace=wrap;html=1;" vertex="1" parent="1">
                    <mxGeometry x="1165" y="1560" width="130" height="60" as="geometry"/>
                </mxCell>
                <mxCell id="323" value="route a request to get all maps from the database" style="rhombus;whiteSpace=wrap;html=1;" vertex="1" parent="1">
                    <mxGeometry x="1170" y="2350" width="120" height="60" as="geometry"/>
                </mxCell>
                <mxCell id="324" value="route a request to delete a specific map from the database" style="rhombus;whiteSpace=wrap;html=1;" vertex="1" parent="1">
                    <mxGeometry x="1165" y="2810" width="130" height="60" as="geometry"/>
                </mxCell>
                <mxCell id="325" value="true" style="text;html=1;strokeColor=none;fillColor=none;align=center;verticalAlign=middle;whiteSpace=wrap;rounded=0;" vertex="1" parent="1">
                    <mxGeometry x="1270" y="1540" width="60" height="30" as="geometry"/>
                </mxCell>
                <mxCell id="326" value="false" style="text;html=1;strokeColor=none;fillColor=none;align=center;verticalAlign=middle;whiteSpace=wrap;rounded=0;" vertex="1" parent="1">
                    <mxGeometry x="1150" y="1640" width="60" height="30" as="geometry"/>
                </mxCell>
                <mxCell id="327" value="true" style="text;html=1;strokeColor=none;fillColor=none;align=center;verticalAlign=middle;whiteSpace=wrap;rounded=0;" vertex="1" parent="1">
                    <mxGeometry x="1270" y="2320" width="60" height="30" as="geometry"/>
                </mxCell>
                <mxCell id="328" value="false" style="text;html=1;strokeColor=none;fillColor=none;align=center;verticalAlign=middle;whiteSpace=wrap;rounded=0;" vertex="1" parent="1">
                    <mxGeometry x="1150" y="2420" width="60" height="30" as="geometry"/>
                </mxCell>
                <mxCell id="329" value="true" style="text;html=1;strokeColor=none;fillColor=none;align=center;verticalAlign=middle;whiteSpace=wrap;rounded=0;" vertex="1" parent="1">
                    <mxGeometry x="1270" y="2790" width="60" height="30" as="geometry"/>
                </mxCell>
                <mxCell id="330" value="" style="edgeStyle=none;html=1;" edge="1" parent="1" source="331" target="334">
                    <mxGeometry relative="1" as="geometry"/>
                </mxCell>
                <mxCell id="331" value="def dijkstra(graph, start_id, end_id)" style="rounded=1;whiteSpace=wrap;html=1;arcSize=50;" vertex="1" parent="1">
                    <mxGeometry x="2820" y="1020" width="220" height="30" as="geometry"/>
                </mxCell>
                <mxCell id="332" value="" style="edgeStyle=none;html=1;" edge="1" parent="1" source="334" target="336">
                    <mxGeometry relative="1" as="geometry"/>
                </mxCell>
                <mxCell id="333" value="" style="edgeStyle=none;html=1;" edge="1" parent="1" source="334" target="338">
                    <mxGeometry relative="1" as="geometry"/>
                </mxCell>
                <mxCell id="334" value="node in graph?" style="rhombus;whiteSpace=wrap;html=1;" vertex="1" parent="1">
                    <mxGeometry x="2875" y="1190" width="110" height="80" as="geometry"/>
                </mxCell>
                <mxCell id="335" style="edgeStyle=none;html=1;exitX=0.5;exitY=0;exitDx=0;exitDy=0;entryX=0.5;entryY=0;entryDx=0;entryDy=0;" edge="1" parent="1" source="336" target="334">
                    <mxGeometry relative="1" as="geometry">
                        <Array as="points">
                            <mxPoint x="3110" y="1140"/>
                            <mxPoint x="2930" y="1140"/>
                        </Array>
                    </mxGeometry>
                </mxCell>
                <mxCell id="336" value="set node distance to infinite and previous node to none" style="rounded=0;whiteSpace=wrap;html=1;" vertex="1" parent="1">
                    <mxGeometry x="3050" y="1200" width="120" height="60" as="geometry"/>
                </mxCell>
                <mxCell id="337" value="" style="edgeStyle=none;html=1;" edge="1" parent="1" source="338" target="340">
                    <mxGeometry relative="1" as="geometry"/>
                </mxCell>
                <mxCell id="338" value="set start node from the graph object" style="rounded=0;whiteSpace=wrap;html=1;" vertex="1" parent="1">
                    <mxGeometry x="2870" y="1310" width="120" height="60" as="geometry"/>
                </mxCell>
                <mxCell id="339" value="" style="edgeStyle=none;html=1;" edge="1" parent="1" source="340" target="342">
                    <mxGeometry relative="1" as="geometry"/>
                </mxCell>
                <mxCell id="340" value="set distance to 0" style="rounded=0;whiteSpace=wrap;html=1;" vertex="1" parent="1">
                    <mxGeometry x="2870" y="1420" width="120" height="60" as="geometry"/>
                </mxCell>
                <mxCell id="341" value="" style="edgeStyle=none;html=1;" edge="1" parent="1" source="342" target="345">
                    <mxGeometry relative="1" as="geometry"/>
                </mxCell>
                <mxCell id="342" value="intialize priotrity queue with a tuple; distance 0 and start node" style="rounded=0;whiteSpace=wrap;html=1;" vertex="1" parent="1">
                    <mxGeometry x="2870" y="1530" width="120" height="60" as="geometry"/>
                </mxCell>
                <mxCell id="343" value="" style="edgeStyle=none;html=1;" edge="1" parent="1" source="345" target="347">
                    <mxGeometry relative="1" as="geometry"/>
                </mxCell>
                <mxCell id="344" style="edgeStyle=none;html=1;entryX=0.5;entryY=0;entryDx=0;entryDy=0;" edge="1" parent="1" source="345" target="357">
                    <mxGeometry relative="1" as="geometry"/>
                </mxCell>
                <mxCell id="345" value="is priority queue empty?" style="rhombus;whiteSpace=wrap;html=1;" vertex="1" parent="1">
                    <mxGeometry x="2890" y="1720" width="80" height="80" as="geometry"/>
                </mxCell>
                <mxCell id="346" value="" style="edgeStyle=none;html=1;" edge="1" parent="1" source="347" target="349">
                    <mxGeometry relative="1" as="geometry"/>
                </mxCell>
                <mxCell id="347" value="set current distance and node to a popped heap object" style="rounded=0;whiteSpace=wrap;html=1;" vertex="1" parent="1">
                    <mxGeometry x="3050" y="1730" width="120" height="60" as="geometry"/>
                </mxCell>
                <mxCell id="348" value="" style="edgeStyle=none;html=1;" edge="1" parent="1" source="349" target="352">
                    <mxGeometry relative="1" as="geometry"/>
                </mxCell>
                <mxCell id="349" value="set current node to noed from graph object of current id" style="rounded=0;whiteSpace=wrap;html=1;" vertex="1" parent="1">
                    <mxGeometry x="3050" y="1840" width="120" height="60" as="geometry"/>
                </mxCell>
                <mxCell id="350" value="" style="edgeStyle=none;html=1;" edge="1" parent="1" source="352" target="357">
                    <mxGeometry relative="1" as="geometry"/>
                </mxCell>
                <mxCell id="351" value="" style="edgeStyle=none;html=1;" edge="1" parent="1" source="352" target="355">
                    <mxGeometry relative="1" as="geometry"/>
                </mxCell>
                <mxCell id="352" value="is current id&amp;nbsp;&lt;br&gt;the end id" style="rhombus;whiteSpace=wrap;html=1;" vertex="1" parent="1">
                    <mxGeometry x="3070" y="1950" width="80" height="80" as="geometry"/>
                </mxCell>
                <mxCell id="353" style="edgeStyle=none;html=1;exitX=1;exitY=0.5;exitDx=0;exitDy=0;entryX=0.5;entryY=0;entryDx=0;entryDy=0;" edge="1" parent="1" source="355" target="345">
                    <mxGeometry relative="1" as="geometry">
                        <Array as="points">
                            <mxPoint x="3230" y="2120"/>
                            <mxPoint x="3230" y="1660"/>
                            <mxPoint x="2930" y="1660"/>
                        </Array>
                    </mxGeometry>
                </mxCell>
                <mxCell id="354" value="" style="edgeStyle=none;html=1;" edge="1" parent="1" source="355" target="360">
                    <mxGeometry relative="1" as="geometry"/>
                </mxCell>
                <mxCell id="355" value="is current distance greater than current node distance" style="rhombus;whiteSpace=wrap;html=1;" vertex="1" parent="1">
                    <mxGeometry x="3070" y="2080" width="80" height="80" as="geometry"/>
                </mxCell>
                <mxCell id="356" value="" style="edgeStyle=none;html=1;" edge="1" parent="1" source="357" target="392">
                    <mxGeometry relative="1" as="geometry"/>
                </mxCell>
                <mxCell id="357" value="intialize the path" style="rounded=0;whiteSpace=wrap;html=1;" vertex="1" parent="1">
                    <mxGeometry x="2870" y="1960" width="120" height="60" as="geometry"/>
                </mxCell>
                <mxCell id="358" value="" style="edgeStyle=none;html=1;" edge="1" parent="1" source="360" target="362">
                    <mxGeometry relative="1" as="geometry"/>
                </mxCell>
                <mxCell id="359" style="edgeStyle=none;html=1;exitX=1;exitY=0.5;exitDx=0;exitDy=0;entryX=0.5;entryY=0;entryDx=0;entryDy=0;" edge="1" parent="1" source="360" target="345">
                    <mxGeometry relative="1" as="geometry">
                        <Array as="points">
                            <mxPoint x="3230" y="2250"/>
                            <mxPoint x="3230" y="1660"/>
                            <mxPoint x="2930" y="1660"/>
                        </Array>
                    </mxGeometry>
                </mxCell>
                <mxCell id="360" value="is neighbor in current node neighbors" style="rhombus;whiteSpace=wrap;html=1;" vertex="1" parent="1">
                    <mxGeometry x="3070" y="2210" width="80" height="80" as="geometry"/>
                </mxCell>
                <mxCell id="361" value="" style="edgeStyle=none;html=1;" edge="1" parent="1" source="362" target="365">
                    <mxGeometry relative="1" as="geometry"/>
                </mxCell>
                <mxCell id="362" value="weight = current node weight from it to neighbor" style="rounded=0;whiteSpace=wrap;html=1;" vertex="1" parent="1">
                    <mxGeometry x="3050" y="2340" width="120" height="60" as="geometry"/>
                </mxCell>
                <mxCell id="363" style="edgeStyle=none;html=1;exitX=1;exitY=0.5;exitDx=0;exitDy=0;entryX=0.5;entryY=0;entryDx=0;entryDy=0;" edge="1" parent="1" source="365" target="345">
                    <mxGeometry relative="1" as="geometry">
                        <Array as="points">
                            <mxPoint x="3230" y="2490"/>
                            <mxPoint x="3230" y="1660"/>
                            <mxPoint x="2930" y="1660"/>
                        </Array>
                    </mxGeometry>
                </mxCell>
                <mxCell id="364" value="" style="edgeStyle=none;html=1;" edge="1" parent="1" source="365" target="367">
                    <mxGeometry relative="1" as="geometry"/>
                </mxCell>
                <mxCell id="365" value="is the weight is 10000" style="rhombus;whiteSpace=wrap;html=1;" vertex="1" parent="1">
                    <mxGeometry x="3070" y="2450" width="80" height="80" as="geometry"/>
                </mxCell>
                <mxCell id="366" value="" style="edgeStyle=none;html=1;" edge="1" parent="1" source="367" target="370">
                    <mxGeometry relative="1" as="geometry"/>
                </mxCell>
                <mxCell id="367" value="distnace is the current distance with the weight" style="rounded=0;whiteSpace=wrap;html=1;" vertex="1" parent="1">
                    <mxGeometry x="3050" y="2580" width="120" height="60" as="geometry"/>
                </mxCell>
                <mxCell id="368" style="edgeStyle=none;html=1;exitX=0;exitY=0.5;exitDx=0;exitDy=0;entryX=0;entryY=0.5;entryDx=0;entryDy=0;" edge="1" parent="1" source="370" target="360">
                    <mxGeometry relative="1" as="geometry">
                        <Array as="points">
                            <mxPoint x="3020" y="2730"/>
                            <mxPoint x="3020" y="2250"/>
                        </Array>
                    </mxGeometry>
                </mxCell>
                <mxCell id="369" value="" style="edgeStyle=none;html=1;" edge="1" parent="1" source="370" target="384">
                    <mxGeometry relative="1" as="geometry"/>
                </mxCell>
                <mxCell id="370" value="is distance less than neighbor distance" style="rhombus;whiteSpace=wrap;html=1;" vertex="1" parent="1">
                    <mxGeometry x="3070" y="2690" width="80" height="80" as="geometry"/>
                </mxCell>
                <mxCell id="371" value="true" style="text;html=1;strokeColor=none;fillColor=none;align=center;verticalAlign=middle;whiteSpace=wrap;rounded=0;" vertex="1" parent="1">
                    <mxGeometry x="2980" y="1190" width="60" height="30" as="geometry"/>
                </mxCell>
                <mxCell id="372" value="false" style="text;html=1;strokeColor=none;fillColor=none;align=center;verticalAlign=middle;whiteSpace=wrap;rounded=0;" vertex="1" parent="1">
                    <mxGeometry x="2870" y="1270" width="60" height="30" as="geometry"/>
                </mxCell>
                <mxCell id="373" value="true" style="text;html=1;strokeColor=none;fillColor=none;align=center;verticalAlign=middle;whiteSpace=wrap;rounded=0;" vertex="1" parent="1">
                    <mxGeometry x="2850" y="1800" width="60" height="30" as="geometry"/>
                </mxCell>
                <mxCell id="374" value="false" style="text;html=1;strokeColor=none;fillColor=none;align=center;verticalAlign=middle;whiteSpace=wrap;rounded=0;" vertex="1" parent="1">
                    <mxGeometry x="2980" y="1720" width="60" height="30" as="geometry"/>
                </mxCell>
                <mxCell id="375" value="true" style="text;html=1;strokeColor=none;fillColor=none;align=center;verticalAlign=middle;whiteSpace=wrap;rounded=0;" vertex="1" parent="1">
                    <mxGeometry x="3010" y="1950" width="60" height="30" as="geometry"/>
                </mxCell>
                <mxCell id="376" value="false" style="text;html=1;strokeColor=none;fillColor=none;align=center;verticalAlign=middle;whiteSpace=wrap;rounded=0;" vertex="1" parent="1">
                    <mxGeometry x="3120" y="2040" width="60" height="30" as="geometry"/>
                </mxCell>
                <mxCell id="377" value="true" style="text;html=1;strokeColor=none;fillColor=none;align=center;verticalAlign=middle;whiteSpace=wrap;rounded=0;" vertex="1" parent="1">
                    <mxGeometry x="3160" y="2080" width="60" height="30" as="geometry"/>
                </mxCell>
                <mxCell id="378" value="false" style="text;html=1;strokeColor=none;fillColor=none;align=center;verticalAlign=middle;whiteSpace=wrap;rounded=0;" vertex="1" parent="1">
                    <mxGeometry x="3040" y="2170" width="60" height="30" as="geometry"/>
                </mxCell>
                <mxCell id="379" value="true" style="text;html=1;strokeColor=none;fillColor=none;align=center;verticalAlign=middle;whiteSpace=wrap;rounded=0;" vertex="1" parent="1">
                    <mxGeometry x="3030" y="2290" width="60" height="30" as="geometry"/>
                </mxCell>
                <mxCell id="380" value="false" style="text;html=1;strokeColor=none;fillColor=none;align=center;verticalAlign=middle;whiteSpace=wrap;rounded=0;" vertex="1" parent="1">
                    <mxGeometry x="3160" y="2210" width="60" height="30" as="geometry"/>
                </mxCell>
                <mxCell id="381" value="true" style="text;html=1;strokeColor=none;fillColor=none;align=center;verticalAlign=middle;whiteSpace=wrap;rounded=0;" vertex="1" parent="1">
                    <mxGeometry x="3160" y="2450" width="60" height="30" as="geometry"/>
                </mxCell>
                <mxCell id="382" value="false" style="text;html=1;strokeColor=none;fillColor=none;align=center;verticalAlign=middle;whiteSpace=wrap;rounded=0;" vertex="1" parent="1">
                    <mxGeometry x="3040" y="2540" width="60" height="30" as="geometry"/>
                </mxCell>
                <mxCell id="383" value="" style="edgeStyle=none;html=1;" edge="1" parent="1" source="384" target="386">
                    <mxGeometry relative="1" as="geometry"/>
                </mxCell>
                <mxCell id="384" value="neighbor distance is current distance" style="rounded=0;whiteSpace=wrap;html=1;" vertex="1" parent="1">
                    <mxGeometry x="3050" y="2820" width="120" height="60" as="geometry"/>
                </mxCell>
                <mxCell id="385" value="" style="edgeStyle=none;html=1;" edge="1" parent="1" source="386" target="388">
                    <mxGeometry relative="1" as="geometry"/>
                </mxCell>
                <mxCell id="386" value="previous neighbor is equal to the current node" style="rounded=0;whiteSpace=wrap;html=1;" vertex="1" parent="1">
                    <mxGeometry x="3050" y="2920" width="120" height="60" as="geometry"/>
                </mxCell>
                <mxCell id="387" style="edgeStyle=none;html=1;exitX=0.5;exitY=1;exitDx=0;exitDy=0;entryX=0.5;entryY=0;entryDx=0;entryDy=0;" edge="1" parent="1" source="388" target="345">
                    <mxGeometry relative="1" as="geometry">
                        <Array as="points">
                            <mxPoint x="3110" y="3130"/>
                            <mxPoint x="3230" y="3130"/>
                            <mxPoint x="3230" y="1660"/>
                            <mxPoint x="2930" y="1660"/>
                        </Array>
                    </mxGeometry>
                </mxCell>
                <mxCell id="388" value="push new distance and neighbor into priority queue" style="rounded=0;whiteSpace=wrap;html=1;" vertex="1" parent="1">
                    <mxGeometry x="3050" y="3030" width="120" height="60" as="geometry"/>
                </mxCell>
                <mxCell id="389" value="true" style="text;html=1;strokeColor=none;fillColor=none;align=center;verticalAlign=middle;whiteSpace=wrap;rounded=0;" vertex="1" parent="1">
                    <mxGeometry x="3135" y="2780" width="60" height="30" as="geometry"/>
                </mxCell>
                <mxCell id="390" value="false" style="text;html=1;strokeColor=none;fillColor=none;align=center;verticalAlign=middle;whiteSpace=wrap;rounded=0;" vertex="1" parent="1">
                    <mxGeometry x="3020" y="2690" width="60" height="30" as="geometry"/>
                </mxCell>
                <mxCell id="391" value="" style="edgeStyle=none;html=1;" edge="1" parent="1" source="392" target="395">
                    <mxGeometry relative="1" as="geometry"/>
                </mxCell>
                <mxCell id="392" value="current node is equal to the end node in the graph object" style="rounded=0;whiteSpace=wrap;html=1;" vertex="1" parent="1">
                    <mxGeometry x="2870" y="2080" width="120" height="60" as="geometry"/>
                </mxCell>
                <mxCell id="393" value="" style="edgeStyle=none;html=1;" edge="1" parent="1" source="395" target="397">
                    <mxGeometry relative="1" as="geometry"/>
                </mxCell>
                <mxCell id="394" style="edgeStyle=none;html=1;exitX=0;exitY=0.5;exitDx=0;exitDy=0;entryX=0.5;entryY=0;entryDx=0;entryDy=0;" edge="1" parent="1" source="395" target="403">
                    <mxGeometry relative="1" as="geometry">
                        <Array as="points">
                            <mxPoint x="2770" y="2240"/>
                        </Array>
                    </mxGeometry>
                </mxCell>
                <mxCell id="395" value="are we on the current node?" style="rhombus;whiteSpace=wrap;html=1;" vertex="1" parent="1">
                    <mxGeometry x="2890" y="2200" width="80" height="80" as="geometry"/>
                </mxCell>
                <mxCell id="396" value="" style="edgeStyle=none;html=1;" edge="1" parent="1" source="397" target="399">
                    <mxGeometry relative="1" as="geometry"/>
                </mxCell>
                <mxCell id="397" value="append node to path" style="rounded=0;whiteSpace=wrap;html=1;" vertex="1" parent="1">
                    <mxGeometry x="2870" y="2320" width="120" height="60" as="geometry"/>
                </mxCell>
                <mxCell id="398" style="edgeStyle=none;html=1;exitX=0.5;exitY=1;exitDx=0;exitDy=0;entryX=1;entryY=0.5;entryDx=0;entryDy=0;" edge="1" parent="1" source="399" target="395">
                    <mxGeometry relative="1" as="geometry">
                        <Array as="points">
                            <mxPoint x="2930" y="2520"/>
                            <mxPoint x="3010" y="2520"/>
                            <mxPoint x="3010" y="2240"/>
                        </Array>
                    </mxGeometry>
                </mxCell>
                <mxCell id="399" value="set current node to the previous node" style="rounded=0;whiteSpace=wrap;html=1;" vertex="1" parent="1">
                    <mxGeometry x="2870" y="2420" width="120" height="60" as="geometry"/>
                </mxCell>
                <mxCell id="400" value="true" style="text;html=1;strokeColor=none;fillColor=none;align=center;verticalAlign=middle;whiteSpace=wrap;rounded=0;" vertex="1" parent="1">
                    <mxGeometry x="2930" y="2280" width="60" height="30" as="geometry"/>
                </mxCell>
                <mxCell id="401" value="false" style="text;html=1;strokeColor=none;fillColor=none;align=center;verticalAlign=middle;whiteSpace=wrap;rounded=0;" vertex="1" parent="1">
                    <mxGeometry x="2800" y="2200" width="60" height="30" as="geometry"/>
                </mxCell>
                <mxCell id="402" value="" style="edgeStyle=none;html=1;" edge="1" parent="1" source="403" target="404">
                    <mxGeometry relative="1" as="geometry"/>
                </mxCell>
                <mxCell id="403" value="reverse path array" style="rounded=0;whiteSpace=wrap;html=1;" vertex="1" parent="1">
                    <mxGeometry x="2710" y="2320" width="120" height="60" as="geometry"/>
                </mxCell>
                <mxCell id="404" value="return the node distances and path array" style="rounded=0;whiteSpace=wrap;html=1;" vertex="1" parent="1">
                    <mxGeometry x="2710" y="2450" width="120" height="60" as="geometry"/>
                </mxCell>
                <mxCell id="405" style="edgeStyle=none;html=1;exitX=1;exitY=0.75;exitDx=0;exitDy=0;entryX=-0.002;entryY=0.166;entryDx=0;entryDy=0;entryPerimeter=0;startArrow=classic;startFill=1;endArrow=none;endFill=0;" edge="1" parent="1" source="407" target="185">
                    <mxGeometry relative="1" as="geometry"/>
                </mxCell>
                <mxCell id="406" style="edgeStyle=none;html=1;exitX=1;exitY=0.25;exitDx=0;exitDy=0;entryX=-0.004;entryY=0.151;entryDx=0;entryDy=0;entryPerimeter=0;startArrow=none;startFill=0;endArrow=classic;endFill=1;" edge="1" parent="1" source="407" target="185">
                    <mxGeometry relative="1" as="geometry"/>
                </mxCell>
                <mxCell id="407" value="distances, path = dijkstra(graph, start_id, end_id)" style="shape=process;whiteSpace=wrap;html=1;backgroundOutline=1;" vertex="1" parent="1">
                    <mxGeometry x="1555" y="1300" width="330" height="60" as="geometry"/>
                </mxCell>
                <mxCell id="409" value="NodeMap&lt;br&gt;&lt;br&gt;&lt;span class=&quot;hljs-operator&quot;&gt;-&lt;/span&gt; &lt;span class=&quot;hljs-variable&quot;&gt;id&lt;/span&gt;&lt;span class=&quot;hljs-operator&quot;&gt;:&lt;/span&gt; &lt;span class=&quot;hljs-built_in&quot;&gt;Integer&lt;/span&gt; &lt;span class=&quot;hljs-punctuation&quot;&gt;(primary&lt;/span&gt;&lt;span class=&quot;hljs-built_in&quot;&gt;Key&lt;/span&gt;&lt;span class=&quot;hljs-punctuation&quot;&gt;)&lt;/span&gt;&lt;br&gt;&lt;span class=&quot;hljs-operator&quot;&gt;-&lt;/span&gt; &lt;span class=&quot;hljs-type&quot;&gt;_mapName&lt;/span&gt;&lt;span class=&quot;hljs-operator&quot;&gt;:&lt;/span&gt; &lt;span class=&quot;hljs-built_in&quot;&gt;String&lt;/span&gt;&lt;br&gt;&lt;span class=&quot;hljs-operator&quot;&gt;-&lt;/span&gt; &lt;span class=&quot;hljs-type&quot;&gt;_nodeMap&lt;/span&gt;&lt;span class=&quot;hljs-operator&quot;&gt;:&lt;/span&gt; &lt;span class=&quot;hljs-built_in&quot;&gt;String&lt;/span&gt; &lt;span class=&quot;hljs-punctuation&quot;&gt;(&lt;/span&gt;&lt;span class=&quot;hljs-variable&quot;&gt;JSON&lt;/span&gt;&lt;span class=&quot;hljs-punctuation&quot;&gt;)&lt;br&gt;&lt;br&gt;+ &lt;span class=&quot;hljs-built_in&quot;&gt;__init__&lt;/span&gt;(mapName, nodeMap)&lt;br&gt;+ &lt;span class=&quot;hljs-built_in&quot;&gt;to_dict&lt;/span&gt;()&lt;br&gt;&lt;/span&gt;" style="rounded=0;whiteSpace=wrap;html=1;align=left;verticalAlign=top;" vertex="1" parent="1">
                    <mxGeometry x="2360" y="1915" width="200" height="140" as="geometry"/>
                </mxCell>
                <mxCell id="410" value="" style="edgeStyle=none;html=1;" edge="1" parent="1" source="411" target="412">
                    <mxGeometry relative="1" as="geometry"/>
                </mxCell>
                <mxCell id="411" value="def __init__(self, mapName, nodeMap)" style="rounded=1;whiteSpace=wrap;html=1;arcSize=50;" vertex="1" parent="1">
                    <mxGeometry x="2320" y="2125" width="260" height="30" as="geometry"/>
                </mxCell>
                <mxCell id="412" value="define self mapName and nodeMap" style="rounded=0;whiteSpace=wrap;html=1;" vertex="1" parent="1">
                    <mxGeometry x="2390" y="2195" width="120" height="60" as="geometry"/>
                </mxCell>
                <mxCell id="413" value="" style="edgeStyle=none;html=1;" edge="1" parent="1" source="414" target="415">
                    <mxGeometry relative="1" as="geometry"/>
                </mxCell>
                <mxCell id="414" value="def to_dict(self)" style="rounded=1;whiteSpace=wrap;html=1;arcSize=50;" vertex="1" parent="1">
                    <mxGeometry x="2320" y="2305" width="260" height="30" as="geometry"/>
                </mxCell>
                <mxCell id="415" value="return each map as a dictionary" style="rounded=0;whiteSpace=wrap;html=1;" vertex="1" parent="1">
                    <mxGeometry x="2390" y="2375" width="120" height="60" as="geometry"/>
                </mxCell>
                <mxCell id="416" value="WeightedGraph&lt;br&gt;&lt;br&gt;- nodes: dict&lt;br&gt;&lt;br&gt;+ &lt;span class=&quot;hljs-title function_ invoke__&quot;&gt;__init__&lt;/span&gt;()&lt;br/&gt;+ &lt;span class=&quot;hljs-title function_ invoke__&quot;&gt;add_node&lt;/span&gt;(&lt;span class=&quot;hljs-attr&quot;&gt;id&lt;/span&gt;: &lt;span class=&quot;hljs-keyword&quot;&gt;int&lt;/span&gt;)&lt;br/&gt;+ &lt;span class=&quot;hljs-title function_ invoke__&quot;&gt;add_edge&lt;/span&gt;(&lt;span class=&quot;hljs-attr&quot;&gt;from_node&lt;/span&gt;: &lt;span class=&quot;hljs-keyword&quot;&gt;int&lt;/span&gt;, &lt;span class=&quot;hljs-attr&quot;&gt;to_node&lt;/span&gt;: &lt;span class=&quot;hljs-keyword&quot;&gt;int&lt;/span&gt;, &lt;span class=&quot;hljs-attr&quot;&gt;weight&lt;/span&gt;: &lt;span class=&quot;hljs-keyword&quot;&gt;int&lt;/span&gt; = &lt;span class=&quot;hljs-number&quot;&gt;1&lt;/span&gt;)" style="rounded=0;whiteSpace=wrap;html=1;align=left;verticalAlign=top;" vertex="1" parent="1">
                    <mxGeometry x="540" y="1080" width="320" height="130" as="geometry"/>
                </mxCell>
                <mxCell id="417" value="" style="edgeStyle=none;html=1;" edge="1" parent="1" source="418" target="419">
                    <mxGeometry relative="1" as="geometry"/>
                </mxCell>
                <mxCell id="418" value="def __init__(self)" style="rounded=1;whiteSpace=wrap;html=1;arcSize=50;" vertex="1" parent="1">
                    <mxGeometry x="630" y="1250" width="140" height="30" as="geometry"/>
                </mxCell>
                <mxCell id="419" value="define self nodes dictionary" style="rounded=0;whiteSpace=wrap;html=1;" vertex="1" parent="1">
                    <mxGeometry x="640" y="1320" width="120" height="60" as="geometry"/>
                </mxCell>
                <mxCell id="420" value="" style="edgeStyle=none;html=1;entryX=0.5;entryY=0;entryDx=0;entryDy=0;" edge="1" parent="1" source="421" target="423">
                    <mxGeometry relative="1" as="geometry">
                        <mxPoint x="700" y="1500" as="targetPoint"/>
                    </mxGeometry>
                </mxCell>
                <mxCell id="421" value="def add_node(self, id)" style="rounded=1;whiteSpace=wrap;html=1;arcSize=50;" vertex="1" parent="1">
                    <mxGeometry x="615" y="1430" width="170" height="30" as="geometry"/>
                </mxCell>
                <mxCell id="422" value="" style="edgeStyle=none;html=1;" edge="1" parent="1" source="423" target="424">
                    <mxGeometry relative="1" as="geometry"/>
                </mxCell>
                <mxCell id="423" value="is id not in the nodes instance" style="rhombus;whiteSpace=wrap;html=1;" vertex="1" parent="1">
                    <mxGeometry x="660" y="1510" width="80" height="80" as="geometry"/>
                </mxCell>
                <mxCell id="464" style="edgeStyle=none;html=1;exitX=0;exitY=0.25;exitDx=0;exitDy=0;entryX=1.002;entryY=0.531;entryDx=0;entryDy=0;entryPerimeter=0;startArrow=classic;startFill=1;endArrow=none;endFill=0;" edge="1" parent="1" source="424" target="463">
                    <mxGeometry relative="1" as="geometry"/>
                </mxCell>
                <mxCell id="465" style="edgeStyle=none;html=1;exitX=0;exitY=0.75;exitDx=0;exitDy=0;entryX=0.997;entryY=0.568;entryDx=0;entryDy=0;entryPerimeter=0;startArrow=none;startFill=0;endArrow=classic;endFill=1;" edge="1" parent="1" source="424" target="463">
                    <mxGeometry relative="1" as="geometry"/>
                </mxCell>
                <mxCell id="424" value="create a node object in nodes dictionary" style="rounded=0;whiteSpace=wrap;html=1;" vertex="1" parent="1">
                    <mxGeometry x="640" y="1630" width="120" height="60" as="geometry"/>
                </mxCell>
                <mxCell id="425" value="true" style="text;html=1;strokeColor=none;fillColor=none;align=center;verticalAlign=middle;whiteSpace=wrap;rounded=0;" vertex="1" parent="1">
                    <mxGeometry x="710" y="1590" width="60" height="30" as="geometry"/>
                </mxCell>
                <mxCell id="426" value="" style="edgeStyle=none;html=1;entryX=0.5;entryY=0;entryDx=0;entryDy=0;" edge="1" parent="1" source="427" target="430">
                    <mxGeometry relative="1" as="geometry">
                        <mxPoint x="700" y="1810" as="targetPoint"/>
                    </mxGeometry>
                </mxCell>
                <mxCell id="427" value="def add_edge(self, from_node, to_node, weight=1)" style="rounded=1;whiteSpace=wrap;html=1;arcSize=50;" vertex="1" parent="1">
                    <mxGeometry x="545" y="1740" width="310" height="30" as="geometry"/>
                </mxCell>
                <mxCell id="428" value="" style="edgeStyle=none;html=1;entryX=0.5;entryY=0;entryDx=0;entryDy=0;" edge="1" parent="1" source="430" target="435">
                    <mxGeometry relative="1" as="geometry">
                        <mxPoint x="700" y="1940" as="targetPoint"/>
                    </mxGeometry>
                </mxCell>
                <mxCell id="429" value="" style="edgeStyle=none;html=1;" edge="1" parent="1" source="430" target="432">
                    <mxGeometry relative="1" as="geometry"/>
                </mxCell>
                <mxCell id="430" value="is from_node in nodes dictinoary" style="rhombus;whiteSpace=wrap;html=1;" vertex="1" parent="1">
                    <mxGeometry x="660" y="1820" width="80" height="80" as="geometry"/>
                </mxCell>
                <mxCell id="431" value="true" style="text;html=1;strokeColor=none;fillColor=none;align=center;verticalAlign=middle;whiteSpace=wrap;rounded=0;" vertex="1" parent="1">
                    <mxGeometry x="725" y="1810" width="60" height="30" as="geometry"/>
                </mxCell>
                <mxCell id="432" value="create a node object in nodes dictionary" style="rounded=0;whiteSpace=wrap;html=1;" vertex="1" parent="1">
                    <mxGeometry x="790" y="1830" width="120" height="60" as="geometry"/>
                </mxCell>
                <mxCell id="433" value="" style="edgeStyle=none;html=1;" edge="1" parent="1" source="435" target="437">
                    <mxGeometry relative="1" as="geometry"/>
                </mxCell>
                <mxCell id="434" value="" style="edgeStyle=none;html=1;" edge="1" parent="1" source="435" target="439">
                    <mxGeometry relative="1" as="geometry"/>
                </mxCell>
                <mxCell id="435" value="is to_nodes in nodes dictinoary" style="rhombus;whiteSpace=wrap;html=1;" vertex="1" parent="1">
                    <mxGeometry x="660" y="1960" width="80" height="80" as="geometry"/>
                </mxCell>
                <mxCell id="436" value="true" style="text;html=1;strokeColor=none;fillColor=none;align=center;verticalAlign=middle;whiteSpace=wrap;rounded=0;" vertex="1" parent="1">
                    <mxGeometry x="725" y="1950" width="60" height="30" as="geometry"/>
                </mxCell>
                <mxCell id="437" value="create a node object in nodes dictionary" style="rounded=0;whiteSpace=wrap;html=1;" vertex="1" parent="1">
                    <mxGeometry x="790" y="1970" width="120" height="60" as="geometry"/>
                </mxCell>
                <mxCell id="438" value="false" style="text;html=1;strokeColor=none;fillColor=none;align=center;verticalAlign=middle;whiteSpace=wrap;rounded=0;" vertex="1" parent="1">
                    <mxGeometry x="630" y="1910" width="60" height="30" as="geometry"/>
                </mxCell>
                <mxCell id="439" value="add a neighbor to the from_node in the dictionary with a weight" style="rounded=0;whiteSpace=wrap;html=1;" vertex="1" parent="1">
                    <mxGeometry x="640" y="2080" width="120" height="60" as="geometry"/>
                </mxCell>
                <mxCell id="440" value="Node&lt;br&gt;&lt;br&gt;- id: int&lt;br&gt;- distance: float&lt;br&gt;- adjacents: dict&lt;br&gt;&lt;br&gt;+ &lt;span class=&quot;hljs-title function_ invoke__&quot;&gt;__init__&lt;/span&gt;(&lt;span class=&quot;hljs-attr&quot;&gt;id&lt;/span&gt;: &lt;span class=&quot;hljs-keyword&quot;&gt;int&lt;/span&gt;, &lt;span class=&quot;hljs-attr&quot;&gt;distance&lt;/span&gt;: &lt;span class=&quot;hljs-keyword&quot;&gt;float&lt;/span&gt;)&lt;br&gt;+ &lt;span class=&quot;hljs-title function_ invoke__&quot;&gt;add_neighbor&lt;/span&gt;(&lt;span class=&quot;hljs-attr&quot;&gt;neighbor&lt;/span&gt;: Node, &lt;span class=&quot;hljs-attr&quot;&gt;weight&lt;/span&gt;: &lt;span class=&quot;hljs-keyword&quot;&gt;int&lt;/span&gt;)&lt;br&gt;+ &lt;span class=&quot;hljs-title function_ invoke__&quot;&gt;get_neighbors&lt;/span&gt;(): dict_keys&lt;br&gt;+ &lt;span class=&quot;hljs-title function_ invoke__&quot;&gt;get_weight&lt;/span&gt;(&lt;span class=&quot;hljs-attr&quot;&gt;neighbor&lt;/span&gt;: Node): &lt;span class=&quot;hljs-keyword&quot;&gt;int&lt;/span&gt;" style="rounded=0;whiteSpace=wrap;html=1;align=left;labelPosition=center;verticalLabelPosition=middle;verticalAlign=top;" vertex="1" parent="1">
                    <mxGeometry x="120" y="1200" width="260" height="160" as="geometry"/>
                </mxCell>
                <mxCell id="441" value="" style="edgeStyle=none;html=1;" edge="1" parent="1" source="442" target="443">
                    <mxGeometry relative="1" as="geometry"/>
                </mxCell>
                <mxCell id="442" value="def __init__(self, id, distance=float('inf'))" style="rounded=1;whiteSpace=wrap;html=1;arcSize=50;" vertex="1" parent="1">
                    <mxGeometry x="120" y="1410" width="260" height="30" as="geometry"/>
                </mxCell>
                <mxCell id="443" value="define self id, distance, and adjecents dictionary" style="rounded=0;whiteSpace=wrap;html=1;" vertex="1" parent="1">
                    <mxGeometry x="190" y="1480" width="120" height="60" as="geometry"/>
                </mxCell>
                <mxCell id="444" value="" style="edgeStyle=none;html=1;" edge="1" parent="1" source="445" target="446">
                    <mxGeometry relative="1" as="geometry"/>
                </mxCell>
                <mxCell id="445" value="def add_neighbors(self, neighbor, weight=0)" style="rounded=1;whiteSpace=wrap;html=1;arcSize=50;" vertex="1" parent="1">
                    <mxGeometry x="120" y="1580" width="260" height="30" as="geometry"/>
                </mxCell>
                <mxCell id="446" value="define self adjecent neighbors as weights" style="rounded=0;whiteSpace=wrap;html=1;" vertex="1" parent="1">
                    <mxGeometry x="190" y="1650" width="120" height="60" as="geometry"/>
                </mxCell>
                <mxCell id="447" value="" style="edgeStyle=none;html=1;" edge="1" parent="1" source="448" target="449">
                    <mxGeometry relative="1" as="geometry"/>
                </mxCell>
                <mxCell id="448" value="def get_neighbors(self)" style="rounded=1;whiteSpace=wrap;html=1;arcSize=50;" vertex="1" parent="1">
                    <mxGeometry x="160" y="1750" width="180" height="30" as="geometry"/>
                </mxCell>
                <mxCell id="449" value="return adjecent keys" style="rounded=0;whiteSpace=wrap;html=1;" vertex="1" parent="1">
                    <mxGeometry x="190" y="1820" width="120" height="60" as="geometry"/>
                </mxCell>
                <mxCell id="450" value="" style="edgeStyle=none;html=1;" edge="1" parent="1" source="451" target="452">
                    <mxGeometry relative="1" as="geometry"/>
                </mxCell>
                <mxCell id="451" value="def get_weight(self, neighbor)" style="rounded=1;whiteSpace=wrap;html=1;arcSize=50;" vertex="1" parent="1">
                    <mxGeometry x="160" y="1920" width="180" height="30" as="geometry"/>
                </mxCell>
                <mxCell id="452" value="return adjecent neighbor" style="rounded=0;whiteSpace=wrap;html=1;" vertex="1" parent="1">
                    <mxGeometry x="190" y="1990" width="120" height="60" as="geometry"/>
                </mxCell>
            </root>
        </mxGraphModel>
    </diagram>
</mxfile>